<svg width="100" height="100" viewBox="0 0 121 120" fill="none" xmlns="http://www.w3.org/2000/svg">
<path d="M24.5152 74.9975V30.5175C24.5152 25.8174 27.9967 25.0777 29.7375 25.2953H91.2298C96.0343 25.2953 96.7132 28.7768 96.4521 30.5175V74.9975M24.5152 74.9975V80.1292C24.3846 81.3477 25.0373 83.7846 28.693 83.7846H53.3346M24.5152 74.9975H96.4521M96.4521 74.9975V78.5624C96.4521 82.949 92.9706 83.8716 91.2298 83.7846H67.1769M67.1769 83.7846L71.8288 94.7397M67.1769 83.7846H53.3346M71.8288 94.7397H48.9097M71.8288 94.7397H75.3461M53.3346 83.7846L48.9097 94.7397M48.9097 94.7397H44.8251M57.5327 79.309H63.2058" stroke="#403F8B" stroke-width="2" stroke-linecap="round" stroke-linejoin="round"/>
<path d="M55.2325 54.8622L71.916 36.712C73.0402 35.6175 74.8449 35.5513 75.7816 36.3532C76.4056 36.8874 77.4532 38.2923 76.1327 40.1037L57.5242 57.2455M44.2324 67.42C49.9464 67.0534 60.5675 64.5418 57.3408 57.4284C56.3325 55.4116 53.3625 52.2582 49.5491 55.7783C49.213 56.1144 48.3758 57.7583 47.7158 61.645C47.0558 65.5317 45.1185 67.1145 44.2324 67.42Z" stroke="#403F8B" stroke-width="2" stroke-linecap="round" stroke-linejoin="round"/>
</svg>
