<svg width="100" height="100" viewBox="0 0 121 120" fill="none" xmlns="http://www.w3.org/2000/svg">
<g clip-path="url(#clip0_19635_147)">
<path d="M63.5326 48.2508C63.0011 55.4194 57.5667 61.2673 51.6008 61.2673C45.635 61.2673 40.1911 55.4207 39.6691 48.2508C39.1268 40.7935 44.4147 35.2344 51.6008 35.2344C58.787 35.2344 64.0749 40.9291 63.5326 48.2508Z" stroke="#403F8B" stroke-width="2.5" stroke-linecap="round" stroke-linejoin="round"/>
<path fill-rule="evenodd" clip-rule="evenodd" d="M53.6491 92.8855C53.0258 92.1072 52.4721 91.2707 51.9976 90.3855H27.7404C27.3875 90.3855 27.1704 90.2421 27.027 90.033C26.8648 89.7964 26.7647 89.4142 26.848 88.9591L26.8486 88.9558C28.9179 77.4826 40.1613 71.1914 51.6026 71.1914C52.6134 71.1914 53.6226 71.2405 54.6241 71.338C55.4009 70.5291 56.2601 69.7999 57.1881 69.1639C55.3395 68.8493 53.4646 68.6914 51.6026 68.6914C39.452 68.6914 26.7512 75.4161 24.3886 88.5104C24.2013 89.5354 24.3867 90.6032 24.9652 91.4468C25.5628 92.3184 26.5423 92.8855 27.7404 92.8855H53.6491Z" fill="#403F8B"/>
<path d="M93.9229 38.0731C93.0838 37.4698 91.0865 36.4912 91.0865 36.4912C90.7201 36.3097 90.3745 36.1498 90.1149 36.0523C89.1466 35.6913 88.6546 36.5712 88.6546 36.5712C88.6546 36.5712 81.0289 49.5885 75.1004 60.1443C71.4418 66.6611 68.4294 72.2404 68.2601 73.2402C68.1188 74.0709 68.0411 74.8195 67.9987 75.4567C68.6109 75.4664 69.2955 75.5491 69.9997 75.7501C70.7416 75.9599 71.5031 76.2989 72.2192 76.813C72.7402 77.1866 73.2366 77.651 73.6865 78.2255C74.1449 77.8638 74.6539 77.4328 75.189 76.9269C75.9342 76.2222 78.9543 70.4888 82.3831 63.7172C87.8303 52.9563 94.3035 39.5745 94.3035 39.5745C94.3035 39.5745 94.7604 38.6755 93.9213 38.0722L93.9229 38.0731Z" stroke="#403F8B" stroke-width="2.5"/>
<path d="M70.7119 77.8656C70.4698 77.7323 70.2271 77.6222 69.9874 77.533C69.2143 77.2473 68.4757 77.171 67.918 77.167C66.4593 77.2307 64.5451 77.8087 63.1483 80.0389C61.8568 82.0997 61.7192 83.7141 61.7265 85.0793C61.7328 86.4353 61.8822 87.5452 61.1874 88.6003C59.7922 90.72 59.072 91.0216 59.072 91.0216C59.072 91.0216 61.9083 92.9172 67.204 91.243C71.1418 89.9992 73.6646 85.739 73.303 81.9774C73.2323 81.2374 73.0503 80.5178 72.7435 79.8438C72.158 78.8901 71.441 78.2663 70.7115 77.8644L70.7119 77.8656Z" stroke="#403F8B" stroke-width="2.5"/>
</g>
<defs>
<clipPath id="clip0_19635_147">
<rect width="72" height="72" fill="white" transform="translate(24.5 24)"/>
</clipPath>
</defs>
</svg>
