<svg width="100" height="100" viewBox="0 0 121 120" fill="none" xmlns="http://www.w3.org/2000/svg">
<path d="M60.525 70.1791V53.138M60.525 53.138L53.2112 60.4274M60.525 53.138L67.8388 60.4274M96.5 69.8127C96.5003 68.0754 96.1545 66.3553 95.4828 64.7531C94.8111 63.1508 93.827 61.6984 92.5878 60.4806C91.3487 59.2628 89.8795 58.304 88.2658 57.6602C86.6521 57.0164 84.9264 56.7005 83.1893 56.7309C82.4856 51.8605 80.2318 47.3463 76.7617 43.8571C73.2915 40.3679 68.7897 38.0894 63.9232 37.3591C59.0567 36.6288 54.0844 37.4856 49.743 39.8025C45.4016 42.1195 41.922 45.7733 39.8198 50.2227C35.5765 50.4912 31.6046 52.4018 28.7463 55.5495C25.8881 58.6972 24.3682 62.8344 24.509 67.0838C24.6498 71.3333 26.4402 75.3608 29.5005 78.3124C32.5609 81.264 36.6505 82.9075 40.9023 82.8945H83.4182C86.8877 82.8945 90.2151 81.5163 92.6684 79.063C95.1217 76.6096 96.5 73.2822 96.5 69.8127Z" stroke="#403F8B" stroke-width="2.5" stroke-linecap="round" stroke-linejoin="round"/>
</svg>
